<svg xmlns="http://www.w3.org/2000/svg" width="512" height="512" viewBox="0 0 24 24"><path fill="#17B057" d="M4.846 20q-.69 0-1.153-.462t-.462-1.153V5.615q0-.69.462-1.152T4.846 4h12.77q.69 0 1.152.463t.463 1.153v2.153h1.538v1h-1.538V11.5h1.538v1h-1.538v2.73h1.538v1h-1.538v2.155q0 .69-.463 1.152T17.616 20zm0-1h12.77q.23 0 .423-.192t.192-.424V5.616q0-.231-.193-.424T17.617 5H4.846q-.23 0-.423.192t-.192.423v12.77q0 .23.192.423q.193.192.423.192M7 16.23h4.039v-3.038H7zm5.423-6.422h3.039V7.769h-3.039zm-5.423 2h4.039V7.769H7zm5.423 4.423h3.039v-5.039h-3.039zM4.231 5v14z"/></svg>