<svg width="250" height="150" viewBox="0 0 250 150" fill="none" xmlns="http://www.w3.org/2000/svg">
<rect x="2" y="103.574" width="5.54054" height="39.7525" rx="2.77027" fill="#17B057"/>
<rect opacity="0.3" x="2" y="6" width="5.54054" height="95.7673" rx="2.77027" fill="#FF8045"/>
<rect x="36.5405" y="56.5941" width="5.54054" height="86.7327" rx="2.77027" fill="#17B057"/>
<rect opacity="0.3" x="36.5405" y="6" width="5.54054" height="48.7871" rx="2.77027" fill="#FF8045"/>
<rect x="71.0811" y="74.6634" width="5.54054" height="68.6634" rx="2.77027" fill="#17B057"/>
<rect opacity="0.3" x="71.0811" y="6" width="5.54054" height="66.8564" rx="2.77027" fill="#FF8045"/>
<rect x="105.622" y="118.03" width="5.54054" height="25.297" rx="2.77027" fill="#17B057"/>
<rect opacity="0.3" x="105.622" y="6" width="5.54054" height="110.223" rx="2.77027" fill="#FF8045"/>
<rect x="140.162" y="42.1386" width="5.54054" height="101.188" rx="2.77027" fill="#17B057"/>
<rect opacity="0.3" x="140.162" y="6" width="5.54054" height="34.3317" rx="2.77027" fill="#FF8045"/>
<rect x="174.703" y="89.1188" width="5.54054" height="54.2079" rx="2.77027" fill="#17B057"/>
<rect opacity="0.3" x="174.703" y="6" width="5.54054" height="81.3119" rx="2.77027" fill="#FF8045"/>
<rect x="209.243" y="60.2079" width="5.54054" height="83.1188" rx="2.77027" fill="#17B057"/>
<rect opacity="0.3" x="209.243" y="6.00003" width="5.54054" height="52.401" rx="2.77027" fill="#FF8045"/>
<rect x="243.784" y="60.2079" width="5.54054" height="83.1188" rx="2.77027" fill="#17B057"/>
<rect opacity="0.3" x="243.784" y="6.00003" width="5.54054" height="52.401" rx="2.77027" fill="#FF8045"/>
</svg>
