<svg width="269" height="150" viewBox="0 0 269 150" fill="none" xmlns="http://www.w3.org/2000/svg">
<rect x="226" width="20" height="150" rx="10" fill="#17B057"/>
<path opacity="0.3" d="M52.8739 2.7312V149.979" stroke="#FF8800" stroke-width="2"/>
<path opacity="0.3" d="M17.8739 2.7312V149.979" stroke="#FF8800" stroke-width="2"/>
<path opacity="0.3" d="M87.1782 2.7312V149.979" stroke="#FF8800" stroke-width="2"/>
<path opacity="0.3" d="M190.091 2.7312V149.979" stroke="#FF8800" stroke-width="2"/>
<path opacity="0.3" d="M121.483 2.7312V149.979" stroke="#FF8800" stroke-width="2"/>
<path opacity="0.3" d="M155.787 2.7312V149.979" stroke="#FF8800" stroke-width="2"/>
<path d="M235.548 83.629V138.516" stroke="url(#paint0_linear_40_228)"/>
<g opacity="0.2" filter="url(#filter0_f_40_228)">
<path d="M16 79.1021C29.1096 83.148 37.9839 89.3225 51.7745 90.5645C80.3317 93.1362 91.2675 61.3753 119.648 65.215C143.796 68.4821 146.708 96.2178 171.105 97.1774C194.066 98.0805 201.489 75.3548 235.058 71.3871" stroke="url(#paint1_linear_40_228)" stroke-width="7"/>
</g>
<path d="M16.7351 76.3548C29.8447 80.4007 38.719 86.5752 52.5097 87.8171C81.0668 90.3888 92.0026 58.628 120.383 62.4677C144.532 65.7348 147.443 93.4705 171.84 94.43C194.802 95.3332 202.224 72.6075 235.793 68.6398" stroke="#17B057" stroke-width="2"/>
<g filter="url(#filter1_d_40_228)">
<circle cx="236" cy="71" r="8" fill="#17B057"/>
<circle cx="236" cy="71" r="7" stroke="white" stroke-width="2"/>
</g>
<defs>
<filter id="filter0_f_40_228" x="0.967865" y="47.393" width="248.501" height="67.3104" filterUnits="userSpaceOnUse" color-interpolation-filters="sRGB">
<feFlood flood-opacity="0" result="BackgroundImageFix"/>
<feBlend mode="normal" in="SourceGraphic" in2="BackgroundImageFix" result="shape"/>
<feGaussianBlur stdDeviation="7" result="effect1_foregroundBlur_40_228"/>
</filter>
<filter id="filter1_d_40_228" x="203" y="43" width="66" height="66" filterUnits="userSpaceOnUse" color-interpolation-filters="sRGB">
<feFlood flood-opacity="0" result="BackgroundImageFix"/>
<feColorMatrix in="SourceAlpha" type="matrix" values="0 0 0 0 0 0 0 0 0 0 0 0 0 0 0 0 0 0 127 0" result="hardAlpha"/>
<feOffset dy="5"/>
<feGaussianBlur stdDeviation="12.5"/>
<feColorMatrix type="matrix" values="0 0 0 0 0 0 0 0 0 0 0 0 0 0 0 0 0 0 0.1 0"/>
<feBlend mode="normal" in2="BackgroundImageFix" result="effect1_dropShadow_40_228"/>
<feBlend mode="normal" in="SourceGraphic" in2="effect1_dropShadow_40_228" result="shape"/>
</filter>
<linearGradient id="paint0_linear_40_228" x1="236.048" y1="83.629" x2="236.048" y2="138.516" gradientUnits="userSpaceOnUse">
<stop stop-color="white" stop-opacity="0"/>
<stop offset="0.510417" stop-color="white"/>
<stop offset="1" stop-color="white" stop-opacity="0"/>
</linearGradient>
<linearGradient id="paint1_linear_40_228" x1="125.529" y1="64.8925" x2="125.529" y2="97.2036" gradientUnits="userSpaceOnUse">
<stop stop-color="#99FFA3"/>
<stop offset="1" stop-color="#68EE76"/>
</linearGradient>
</defs>
</svg>
